<?xml version="1.0" standalone="no"?>
<!DOCTYPE svg PUBLIC "-//W3C//DTD SVG 20010904//EN"
 "http://www.w3.org/TR/2001/REC-SVG-20010904/DTD/svg10.dtd">
<svg version="1.0" xmlns="http://www.w3.org/2000/svg"
 width="610.000000pt" height="121.000000pt" viewBox="0 0 610.000000 121.000000"
 preserveAspectRatio="xMidYMid meet">

<g transform="translate(0.000000,121.000000) scale(0.100000,-0.100000)"
fill="#000000" stroke="none">
<path d="M4590 1141 c0 -76 -17 -276 -39 -459 l-17 -143 25 -20 c47 -37 67
-12 70 87 2 78 38 171 86 220 80 84 97 49 74 -155 -15 -138 -7 -164 53 -169
l37 -3 -10 34 c-6 22 -5 69 1 128 5 52 10 125 10 162 0 59 -3 71 -25 92 -13
14 -34 25 -46 25 -36 0 -87 -38 -130 -98 l-41 -57 9 95 c4 52 8 134 8 182 0
78 -2 89 -24 112 -14 14 -28 26 -33 26 -4 0 -8 -27 -8 -59z"/>
<path d="M506 1176 c-21 -8 -62 -30 -90 -49 -70 -48 -84 -50 -151 -27 -69 24
-98 25 -115 5 -17 -21 -5 -78 24 -112 13 -15 33 -49 46 -75 12 -25 28 -49 36
-52 11 -4 14 -33 14 -140 0 -122 2 -141 24 -191 l25 -55 -118 0 c-65 0 -133
-3 -152 -7 -57 -11 -6 -21 116 -23 117 -2 124 -5 33 -15 -32 -4 -58 -11 -58
-17 0 -8 34 -9 108 -6 128 7 124 5 -36 -21 -68 -11 -127 -22 -130 -25 -15 -16
15 -16 99 -2 51 9 124 16 163 15 l71 -1 -77 -17 c-132 -30 -108 -43 30 -17 40
7 74 11 76 7 2 -3 7 -22 11 -41 12 -56 33 -88 75 -115 46 -29 48 -37 20 -72
-28 -36 -16 -42 18 -10 35 34 52 34 52 2 0 -30 11 -32 28 -5 9 15 23 20 57 20
40 0 47 -3 57 -28 l12 -27 4 32 c4 40 17 41 54 6 36 -34 45 -25 18 19 -19 33
-19 36 -3 50 10 9 28 19 41 23 27 8 62 73 62 115 0 27 3 30 29 30 16 0 62 -7
102 -15 40 -9 74 -13 77 -10 9 9 -62 33 -121 40 -32 4 -55 10 -52 13 10 10
143 2 230 -14 96 -16 112 -17 99 -5 -5 6 -63 20 -129 31 -66 12 -121 23 -123
25 -2 1 48 1 110 -1 121 -5 124 8 5 25 -60 8 -58 9 53 10 123 3 175 12 129 24
-13 4 -73 7 -134 7 -60 0 -116 4 -123 9 -11 7 -9 17 10 52 21 41 23 54 21 175
-3 126 -2 132 22 165 62 83 98 147 102 181 5 33 2 39 -21 49 -22 11 -37 9 -91
-10 l-63 -23 -44 22 c-24 11 -68 35 -98 53 l-55 32 -170 2 c-128 2 -180 0
-209 -11z m431 -44 c26 -18 73 -44 103 -59 l55 -27 -38 -7 c-21 -3 -61 -2 -89
3 -27 5 -52 7 -55 4 -3 -2 17 -14 44 -26 53 -23 96 -59 124 -105 16 -26 19
-27 19 -9 0 12 -11 38 -25 59 -15 20 -25 38 -23 40 25 18 160 85 173 85 14 0
16 -5 11 -26 -8 -30 -72 -141 -111 -194 -24 -31 -26 -41 -20 -85 18 -140 18
-165 1 -209 -24 -61 -79 -110 -117 -102 -40 8 -63 -28 -61 -97 2 -72 -14 -122
-45 -146 -44 -35 -140 -24 -162 18 -9 16 -7 24 12 43 13 13 36 42 52 66 21 32
25 46 17 54 -9 9 -12 8 -12 -4 0 -9 -11 -25 -24 -35 -13 -10 -26 -28 -30 -40
-4 -12 -13 -23 -20 -26 -17 -7 -56 19 -56 37 0 7 -9 21 -20 31 -11 10 -20 25
-20 32 0 8 -6 13 -12 11 -24 -8 -17 -23 55 -115 15 -20 27 -40 27 -45 0 -22
-66 -48 -115 -46 -44 3 -52 7 -72 37 -16 24 -23 48 -23 85 0 102 -25 146 -83
146 -36 0 -73 34 -93 85 -14 38 -16 66 -11 165 6 119 6 120 -20 151 -15 17
-34 44 -42 59 -9 16 -29 49 -45 74 -29 47 -29 76 -1 76 8 0 51 -19 94 -43 l80
-43 -30 -43 c-16 -24 -29 -51 -28 -60 0 -12 5 -9 17 9 39 56 66 80 117 106 30
14 55 28 55 30 0 2 -38 0 -85 -3 -47 -3 -85 -3 -85 0 0 4 19 16 43 28 23 12
61 35 85 52 56 40 96 46 284 43 l157 -3 48 -31z m-501 -687 c11 -27 0 -36 -24
-19 -12 8 -20 20 -17 25 9 14 35 11 41 -6z m574 6 c0 -6 -10 -17 -22 -26 -26
-17 -37 -3 -18 20 14 17 40 20 40 6z m-260 -251 c39 -20 53 -40 27 -40 -7 0
-18 5 -23 10 -8 8 -15 6 -24 -5 -17 -20 -47 -19 -59 2 -8 15 -11 15 -25 3 -13
-10 -20 -10 -28 -2 -9 9 0 17 33 31 54 25 51 25 99 1z"/>
<path d="M500 916 c0 -14 39 -67 40 -53 0 11 -29 67 -35 67 -3 0 -5 -6 -5 -14z"/>
<path d="M582 900 c0 -19 2 -27 5 -17 2 9 2 25 0 35 -3 9 -5 1 -5 -18z"/>
<path d="M810 901 c0 -17 5 -31 10 -31 6 0 10 11 10 24 0 14 -4 28 -10 31 -6
4 -10 -7 -10 -24z"/>
<path d="M887 923 c-16 -26 -26 -63 -17 -63 12 0 32 48 27 64 -2 7 -5 7 -10
-1z"/>
<path d="M430 889 c0 -8 11 -26 25 -39 32 -30 32 -14 0 25 -16 20 -24 25 -25
14z"/>
<path d="M941 871 c-30 -42 -26 -49 9 -16 30 29 38 45 21 45 -5 0 -19 -13 -30
-29z"/>
<path d="M495 781 c3 -5 22 -15 43 -21 20 -7 52 -21 70 -31 22 -12 32 -14 32
-6 0 16 -32 36 -89 53 -54 16 -64 17 -56 5z"/>
<path d="M830 767 c-35 -14 -56 -29 -58 -41 -4 -18 -2 -18 23 2 15 12 35 22
45 22 26 0 80 21 80 31 0 15 -31 10 -90 -14z"/>
<path d="M960 770 c-8 -5 -40 -17 -70 -26 -76 -22 -100 -46 -100 -101 0 -24 5
-43 10 -43 6 0 10 9 10 21 0 17 4 19 23 12 65 -23 137 23 137 87 0 18 6 33 15
36 8 4 15 10 15 15 0 12 -21 11 -40 -1z m-10 -57 c0 -25 -40 -63 -67 -63 -33
0 -63 17 -63 36 0 12 5 14 18 9 44 -19 60 -17 77 9 20 30 35 34 35 9z m-60 -3
c0 -5 -7 -10 -16 -10 -8 0 -12 5 -9 10 3 6 10 10 16 10 5 0 9 -4 9 -10z"/>
<path d="M425 743 c8 -16 17 -41 20 -56 6 -30 60 -70 85 -62 63 18 70 18 71
-6 1 -22 1 -22 11 5 8 22 7 36 -5 61 -14 28 -27 37 -94 59 -100 33 -106 33
-88 -1z m65 -43 c24 -34 36 -37 62 -13 22 19 37 9 22 -15 -18 -28 -70 -27 -99
2 -25 25 -34 56 -16 56 5 0 19 -13 31 -30z m45 10 c3 -5 -1 -10 -9 -10 -9 0
-16 5 -16 10 0 6 4 10 9 10 6 0 13 -4 16 -10z"/>
<path d="M415 592 c17 -16 35 -37 42 -48 10 -16 12 -17 12 -2 1 22 -47 78 -67
78 -12 0 -8 -8 13 -28z"/>
<path d="M956 589 c-27 -32 -33 -49 -17 -49 10 0 61 62 61 73 0 16 -20 5 -44
-24z"/>
<path d="M640 578 c0 -17 49 -98 60 -98 13 0 48 52 55 83 10 39 -1 33 -25 -13
-11 -22 -24 -40 -29 -40 -4 0 -16 18 -26 40 -17 38 -35 53 -35 28z"/>
<path d="M537 543 c-29 -33 -40 -78 -25 -105 12 -22 13 -21 18 23 3 26 12 54
19 63 19 23 9 41 -12 19z"/>
<path d="M850 548 c0 -3 7 -22 16 -43 11 -28 13 -44 5 -66 -8 -22 -7 -27 4
-22 33 12 29 87 -6 119 -10 9 -19 15 -19 12z"/>
<path d="M821 389 c-13 -38 -13 -39 -3 -39 9 0 32 44 32 60 0 22 -19 8 -29
-21z"/>
<path d="M560 396 c0 -25 12 -46 26 -46 12 0 12 5 -1 30 -17 33 -25 38 -25 16z"/>
<path d="M646 395 c11 -28 114 -31 114 -4 0 6 -14 7 -33 4 -18 -4 -44 -2 -59
4 -22 8 -26 8 -22 -4z"/>
<path d="M515 330 c4 -6 11 -8 16 -5 14 9 11 15 -7 15 -8 0 -12 -5 -9 -10z"/>
<path d="M878 333 c7 -3 16 -2 19 1 4 3 -2 6 -13 5 -11 0 -14 -3 -6 -6z"/>
<path d="M570 300 c0 -5 5 -10 10 -10 6 0 10 5 10 10 0 6 -4 10 -10 10 -5 0
-10 -4 -10 -10z"/>
<path d="M810 300 c0 -5 5 -10 10 -10 6 0 10 5 10 10 0 6 -4 10 -10 10 -5 0
-10 -4 -10 -10z"/>
<path d="M515 280 c4 -6 11 -8 16 -5 14 9 11 15 -7 15 -8 0 -12 -5 -9 -10z"/>
<path d="M865 280 c4 -6 11 -8 16 -5 14 9 11 15 -7 15 -8 0 -12 -5 -9 -10z"/>
<path d="M610 270 c0 -5 7 -10 15 -10 8 0 15 5 15 10 0 6 -7 10 -15 10 -8 0
-15 -4 -15 -10z"/>
<path d="M760 270 c0 -5 7 -10 15 -10 8 0 15 5 15 10 0 6 -7 10 -15 10 -8 0
-15 -4 -15 -10z"/>
<path d="M555 251 c-7 -12 12 -24 25 -16 11 7 4 25 -10 25 -5 0 -11 -4 -15 -9z"/>
<path d="M830 244 c0 -8 5 -12 10 -9 6 4 8 11 5 16 -9 14 -15 11 -15 -7z"/>
<path d="M5126 1118 c-15 -21 -13 -38 5 -38 6 0 37 -18 69 -40 75 -51 90 -57
90 -35 0 23 -109 135 -131 135 -10 0 -25 -10 -33 -22z"/>
<path d="M2870 1047 c0 -39 -9 -151 -20 -247 -26 -228 -26 -286 -1 -300 43
-23 49 -15 55 78 12 160 37 370 49 414 l13 43 57 3 c49 3 60 0 81 -21 71 -71
18 -226 -83 -243 -60 -10 -69 -15 -45 -26 15 -7 40 -6 78 2 122 25 198 156
152 263 -30 71 -98 96 -204 76 -59 -11 -64 -10 -86 10 -38 36 -46 27 -46 -52z"/>
<path d="M1722 1093 c-5 -10 -12 -67 -15 -128 -9 -176 -37 -406 -53 -438 l-15
-28 161 3 c156 3 162 4 181 27 10 13 19 27 19 32 0 5 -56 9 -125 9 -123 0
-125 0 -125 23 0 12 12 123 26 246 l27 225 -27 23 c-32 28 -42 29 -54 6z"/>
<path d="M4325 1023 c-11 -86 -14 -92 -53 -111 -28 -13 -38 -24 -40 -45 -3
-27 -2 -28 34 -21 l37 7 -7 -39 c-3 -22 -9 -95 -12 -164 -6 -118 -5 -126 16
-152 12 -16 26 -28 31 -28 5 0 9 25 9 54 0 53 25 267 37 314 4 17 12 22 37 22
39 0 90 45 67 59 -7 5 -31 6 -52 4 l-39 -6 -1 39 c-1 57 -12 85 -36 101 -21
14 -22 13 -28 -34z"/>
<path d="M3796 908 c-3 -24 -8 -108 -11 -188 -3 -80 -8 -157 -11 -171 -5 -24
-2 -28 30 -39 20 -6 40 -9 44 -6 5 3 12 47 15 98 6 75 13 105 38 155 36 75 90
123 115 102 14 -11 15 -33 9 -171 -8 -173 -5 -188 45 -188 27 0 27 0 26 73 0
39 4 127 9 195 8 120 8 123 -15 147 -39 41 -75 34 -134 -27 -29 -29 -59 -64
-68 -78 l-17 -25 0 32 c-1 44 -29 111 -52 123 -16 9 -18 5 -23 -32z"/>
<path d="M5455 847 c0 -56 -7 -146 -14 -200 -14 -98 -14 -98 10 -123 40 -43
52 -29 65 76 20 159 74 274 119 256 15 -5 17 -14 12 -51 -6 -40 -4 -45 12 -45
54 0 83 118 41 160 -11 11 -26 20 -32 20 -29 0 -79 -43 -106 -90 -27 -46 -30
-49 -36 -28 -3 13 -6 36 -6 51 0 26 -38 77 -57 77 -4 0 -8 -46 -8 -103z"/>
<path d="M5133 919 c-68 -33 -133 -153 -133 -244 0 -41 26 -114 50 -143 39
-47 119 -50 195 -7 40 23 75 69 62 81 -3 4 -27 -8 -53 -25 -92 -60 -164 -35
-164 58 l0 49 68 7 c88 9 127 26 152 67 22 37 26 104 7 128 -41 53 -113 64
-184 29z m105 -41 c19 -19 14 -63 -10 -93 -38 -48 -138 -76 -138 -37 1 22 37
102 57 124 18 21 73 24 91 6z"/>
<path d="M5898 915 c-81 -43 -128 -132 -128 -240 0 -67 13 -101 53 -142 28
-30 37 -33 86 -33 64 0 115 22 144 61 31 43 16 53 -28 20 -31 -24 -50 -31 -87
-31 -59 0 -88 31 -88 95 l0 43 75 7 c89 9 131 32 159 88 55 112 -64 197 -186
132z m106 -41 c27 -69 -32 -144 -114 -144 -35 0 -39 17 -14 75 29 71 43 85 84
85 25 0 40 -5 44 -16z"/>
<path d="M2357 923 c-4 -3 -7 -34 -7 -67 -1 -160 -74 -296 -159 -296 -53 0
-68 108 -27 195 13 28 48 73 80 103 31 29 56 55 56 58 0 12 -65 2 -99 -16
-100 -50 -170 -204 -141 -310 32 -120 160 -122 243 -4 l32 46 5 -44 c7 -51 23
-84 50 -98 25 -14 31 -2 20 46 -6 25 -6 72 0 120 21 167 23 243 10 259 -13 15
-51 20 -63 8z"/>
<path d="M3566 914 c-3 -9 -6 -41 -6 -73 0 -104 -57 -240 -113 -270 -61 -33
-101 9 -94 100 8 92 56 169 147 231 l25 17 -38 0 c-103 2 -195 -94 -218 -228
-34 -193 130 -263 243 -104 l33 45 6 -51 c7 -51 30 -91 54 -91 9 0 14 39 19
133 3 72 9 165 12 205 7 79 -2 102 -41 102 -13 0 -26 -7 -29 -16z"/>
<path d="M1930 334 c-38 -33 -80 -115 -80 -160 0 -92 125 -79 176 18 8 15 14
32 14 38 0 13 -59 13 -99 -1 -32 -11 -46 -45 -13 -35 9 3 30 8 46 12 26 6 27
5 17 -15 -28 -52 -103 -68 -109 -23 -5 34 17 90 50 128 31 35 56 42 76 22 9
-9 15 -9 24 0 16 16 1 30 -38 38 -24 5 -37 0 -64 -22z"/>
<path d="M2123 353 c-14 -3 -25 -13 -27 -26 -2 -12 -9 -46 -15 -75 -16 -78
-14 -129 5 -136 9 -3 38 -6 65 -6 37 0 49 4 49 15 0 11 -12 15 -50 15 l-50 0
0 39 0 39 60 7 c44 5 60 11 60 22 0 13 -9 14 -55 8 l-55 -6 7 33 c8 43 19 50
76 45 48 -4 71 8 46 24 -14 9 -75 10 -116 2z"/>
<path d="M2286 348 c-11 -36 -36 -231 -31 -236 14 -14 27 22 38 99 l12 83 58
-87 c57 -86 81 -104 91 -69 26 91 31 192 10 199 -7 2 -14 -24 -18 -74 -4 -42
-10 -81 -13 -86 -6 -11 -65 70 -99 136 -24 46 -41 59 -48 35z"/>
<path d="M2733 353 c-14 -3 -25 -13 -27 -26 -2 -12 -9 -46 -15 -75 -16 -78
-14 -129 5 -136 9 -3 38 -6 65 -6 37 0 49 4 49 15 0 11 -12 15 -50 15 l-50 0
0 39 0 39 60 7 c44 5 60 11 60 22 0 13 -9 14 -55 8 l-55 -6 7 33 c8 43 19 50
76 45 48 -4 71 8 46 24 -14 9 -75 10 -116 2z"/>
<path d="M2995 348 c-2 -7 -12 -58 -21 -112 -15 -96 -15 -100 2 -114 27 -20
100 -10 130 19 64 60 46 144 -41 191 -57 31 -64 33 -70 16z m97 -74 c29 -34
27 -76 -7 -109 -24 -25 -78 -34 -89 -17 -5 8 10 128 20 160 4 15 49 -5 76 -34z"/>
<path d="M3233 353 c-14 -3 -25 -13 -27 -26 -2 -12 -9 -46 -15 -75 -16 -78
-14 -129 5 -136 9 -3 38 -6 65 -6 37 0 49 4 49 15 0 11 -12 15 -50 15 l-50 0
0 39 0 39 60 7 c44 5 60 11 60 22 0 13 -9 14 -55 8 l-55 -6 7 33 c8 43 19 50
76 45 48 -4 71 8 46 24 -14 9 -75 10 -116 2z"/>
<path d="M3823 353 c-14 -3 -25 -13 -27 -26 -2 -12 -9 -46 -15 -75 -16 -78
-14 -129 5 -136 9 -3 38 -6 65 -6 37 0 49 4 49 15 0 11 -12 15 -50 15 l-50 0
0 39 0 39 60 7 c44 5 60 11 60 22 0 13 -9 14 -55 8 l-55 -6 7 33 c8 43 19 50
76 45 48 -4 71 8 46 24 -14 9 -75 10 -116 2z"/>
<path d="M4006 351 c-11 -17 -46 -205 -42 -218 12 -29 120 -1 144 37 13 22 1
60 -19 60 -6 0 -1 12 10 26 26 33 27 58 1 84 -21 21 -84 28 -94 11z m78 -43
c14 -22 -18 -58 -52 -58 -20 0 -23 4 -18 23 3 12 6 30 6 40 0 24 48 20 64 -5z
m-13 -107 l24 -20 -37 -15 c-54 -23 -72 -21 -64 7 3 12 6 28 6 35 0 19 45 14
71 -7z"/>
<path d="M4275 348 c-2 -7 -12 -58 -21 -112 -15 -96 -15 -100 2 -114 27 -20
100 -10 130 19 64 60 46 144 -41 191 -57 31 -64 33 -70 16z m97 -74 c29 -34
27 -76 -7 -109 -24 -25 -78 -34 -89 -17 -5 8 10 128 20 160 4 15 49 -5 76 -34z"/>
<path d="M4513 353 c-14 -3 -25 -13 -27 -26 -2 -12 -9 -46 -15 -75 -16 -78
-14 -129 5 -136 9 -3 38 -6 65 -6 37 0 49 4 49 15 0 11 -12 15 -50 15 l-50 0
0 39 0 39 60 7 c44 5 60 11 60 22 0 13 -9 14 -55 8 l-55 -6 7 33 c8 43 19 50
76 45 48 -4 71 8 46 24 -14 9 -75 10 -116 2z"/>
<path d="M5080 334 c-38 -33 -80 -115 -80 -160 0 -92 125 -79 176 18 8 15 14
32 14 38 0 13 -59 13 -99 -1 -32 -11 -46 -45 -13 -35 9 3 30 8 46 12 26 6 27
5 17 -15 -28 -52 -103 -68 -109 -23 -5 34 17 90 50 128 31 35 56 42 76 22 9
-9 15 -9 24 0 16 16 1 30 -38 38 -24 5 -37 0 -64 -22z"/>
<path d="M5246 348 c-11 -36 -36 -231 -31 -236 14 -14 27 22 38 99 l12 83 58
-87 c57 -86 81 -104 91 -69 26 91 31 192 10 199 -7 2 -14 -24 -18 -74 -4 -42
-10 -81 -13 -86 -6 -11 -65 70 -99 136 -24 46 -41 59 -48 35z"/>
<path d="M1745 288 c-22 -29 -47 -59 -55 -68 -13 -14 -50 -84 -50 -95 0 -17
29 1 48 30 12 20 30 35 41 35 11 0 26 3 34 6 11 4 17 -5 22 -36 4 -24 12 -39
18 -37 8 2 11 34 8 103 -4 137 -7 140 -66 62z m33 -53 c-2 -1 -14 -6 -27 -10
l-24 -7 24 33 c23 33 24 33 27 11 2 -13 2 -25 0 -27z"/>
<path d="M2564 308 c-37 -33 -73 -97 -74 -130 0 -24 35 -58 61 -58 32 0 89 30
89 47 0 11 -5 13 -17 8 -70 -29 -73 -30 -89 -13 -23 23 -12 59 32 108 37 41
61 49 82 28 10 -10 15 -10 22 2 15 24 6 35 -32 38 -29 2 -44 -3 -74 -30z"/>
<path d="M3488 335 c-3 -3 -2 -25 3 -48 4 -23 8 -62 9 -87 0 -57 9 -90 24 -90
6 0 27 36 46 79 19 44 37 77 39 75 3 -3 7 -37 10 -76 3 -39 11 -73 17 -75 6
-2 33 34 60 79 67 114 78 137 71 145 -11 11 -27 -10 -67 -87 -20 -40 -40 -73
-46 -73 -5 -1 -10 35 -12 81 -2 59 -6 82 -15 80 -7 -2 -30 -40 -51 -83 l-40
-80 -8 70 c-4 39 -10 76 -13 83 -5 12 -18 16 -27 7z"/>
<path d="M4719 317 c-22 -15 -35 -32 -37 -50 -4 -29 -3 -29 66 -47 31 -8 42
-16 42 -30 0 -43 -98 -70 -119 -33 -8 15 -12 16 -23 5 -11 -11 -9 -17 11 -33
56 -46 161 -1 161 69 0 25 -31 52 -61 52 -13 0 -31 4 -39 10 -12 7 -12 12 4
29 14 15 31 21 63 21 43 0 57 12 27 24 -30 11 -61 6 -95 -17z"/>
<path d="M4877 333 c-14 -13 -6 -23 19 -23 25 0 26 -2 20 -32 -4 -18 -10 -54
-13 -80 -5 -39 -10 -48 -30 -53 -21 -5 -30 -28 -10 -26 4 1 32 1 62 1 42 0 55
3 55 15 0 10 -10 15 -26 15 -27 0 -27 0 -20 57 11 95 15 105 41 99 28 -7 55
18 29 28 -21 8 -119 8 -127 -1z"/>
</g>
</svg>
